<?xml version="1.0" encoding="UTF-8" standalone="no"?>
<!-- Created with Inkscape (http://www.inkscape.org/) -->

<svg
   width="381mm"
   height="381mm"
   viewBox="0 0 381 381"
   version="1.1"
   id="svg1"
   xml:space="preserve"
   xmlns="http://www.w3.org/2000/svg"
   xmlns:svg="http://www.w3.org/2000/svg"><defs
     id="defs1" /><g
     id="layer1"
     transform="translate(526.17329,-1513.3939)"><circle
       style="fill:#8839ef;fill-opacity:1;stroke:none;stroke-width:0.262687"
       id="path23"
       cx="-335.67331"
       cy="1703.8939"
       r="190.5" /><path
       id="path24"
       style="fill:#ffffff;fill-opacity:1;stroke:none;stroke-width:0.260192"
       d="m -335.67332,1561.0189 a 142.875,142.875 0 0 0 -18.89225,1.3511 107.15625,107.15625 0 0 1 90.32975,105.8052 107.15625,107.15625 0 0 1 -107.15625,107.1562 107.15625,107.15625 0 0 1 -105.78463,-90.6138 142.875,142.875 0 0 0 -1.37162,19.1763 142.875,142.875 0 0 0 142.875,142.875 142.875,142.875 0 0 0 142.875,-142.875 142.875,142.875 0 0 0 -142.875,-142.875 z" /></g></svg>